<svg width="32" height="32" viewBox="0 0 32 32" fill="none" xmlns="http://www.w3.org/2000/svg">
<rect width="32" height="32" rx="16" fill="#FDFDFD"/>
<path d="M24.9995 19.7278V22.287C25.0004 22.5245 24.9517 22.7597 24.8563 22.9774C24.7609 23.1951 24.6211 23.3905 24.4457 23.5511C24.2702 23.7117 24.0632 23.834 23.8376 23.9101C23.6121 23.9862 23.3732 24.0145 23.1361 23.9931C20.5059 23.7078 17.9794 22.8109 15.7596 21.3742C13.6943 20.0644 11.9434 18.3169 10.631 16.2558C9.18648 14.0303 8.28751 11.4966 8.00694 8.85976C7.98558 8.62386 8.01367 8.3861 8.08942 8.16163C8.16518 7.93716 8.28693 7.73089 8.44694 7.55596C8.60694 7.38102 8.80169 7.24125 9.01879 7.14555C9.23589 7.04985 9.47057 7.00031 9.7079 7.00008H12.2722C12.687 6.99601 13.0891 7.14261 13.4037 7.41257C13.7182 7.68252 13.9236 8.05741 13.9817 8.46735C14.0899 9.28635 14.2906 10.0905 14.58 10.8645C14.695 11.1698 14.7199 11.5016 14.6517 11.8206C14.5836 12.1396 14.4252 12.4325 14.1954 12.6644L13.1098 13.7478C14.3266 15.8835 16.0984 17.6518 18.2384 18.8662L19.3239 17.7828C19.5563 17.5534 19.8497 17.3954 20.1694 17.3273C20.489 17.2593 20.8215 17.2841 21.1274 17.3989C21.9029 17.6877 22.7087 17.888 23.5293 17.9961C23.9445 18.0545 24.3237 18.2632 24.5948 18.5825C24.8658 18.9018 25.0099 19.3094 24.9995 19.7278Z" fill="#05253E"/>
</svg>
